<svg width="32" height="32" viewBox="0 0 32 32" fill="none" xmlns="http://www.w3.org/2000/svg">
<path d="M17.6691 15.7922C17.2236 15.3461 16.6241 15.0962 15.9995 15.0962C15.375 15.0962 14.7754 15.3461 14.3299 15.7922C14.3299 15.7922 13.0191 17.1281 12.6455 17.4287L13.7925 32.0001H18.2164L19.3633 17.4387C19.1471 17.3185 17.6691 15.7922 17.6691 15.7922Z" fill="#FF7010"/>
<path d="M9.37511 15.642C8.95031 15.2183 8.3856 14.9714 7.79159 14.9498C7.19757 14.9282 6.61702 15.1333 6.16365 15.5251L3.86975 17.4889L6.07845 29.9496C6.17992 30.5224 6.47579 31.0407 6.91429 31.4137C7.35279 31.7868 7.90602 31.9908 8.47721 31.9902H12.4817L11.3413 17.5122C11.0824 17.4121 9.37511 15.642 9.37511 15.642Z" fill="#FF7010"/>
<path d="M15.4702 2.68013C15.6394 2.74855 15.8191 2.78586 16.0011 2.79034C16.2288 2.79599 16.4541 2.74105 16.6546 2.63095C16.8552 2.52085 17.0241 2.35938 17.1448 2.16247C17.2947 1.93544 17.3745 1.66795 17.3742 1.39432C17.3734 1.18167 17.3251 0.971984 17.2329 0.781202C17.1408 0.590421 17.0071 0.423559 16.8422 0.293291C16.6773 0.163024 16.4854 0.0727779 16.2811 0.0294094C16.0769 -0.013959 15.8656 -0.0093095 15.6633 0.0430051C15.4611 0.0953198 15.2732 0.193924 15.1139 0.331325C14.9547 0.468727 14.8283 0.641312 14.7443 0.835971C14.6602 1.03063 14.6209 1.24224 14.6291 1.45473C14.6374 1.66722 14.693 1.87499 14.7919 2.06227C14.9455 2.33837 15.1838 2.55543 15.4702 2.68013Z" fill="#FF7010"/>
<path d="M23.9085 8.51155L23.5349 8.42137L23.4432 8.04064C22.8566 5.7028 20.7691 3.80247 18.0656 3.15455C17.8205 3.47119 17.5054 3.72429 17.1461 3.8932C16.7867 4.0621 16.3933 4.14201 15.9978 4.12642C14.9 4.12642 13.9923 3.20799 13.9399 3.14453C11.2396 3.79245 9.15219 5.67274 8.56889 8.02394L8.48041 8.42137L8.10356 8.52157C6.52549 8.94102 5.16492 9.96041 4.30134 11.3704C3.43775 12.7803 3.13671 14.4737 3.46005 16.1029L5.31811 14.5098C6.02019 13.9041 6.91865 13.5869 7.83793 13.6202C8.75721 13.6536 9.63127 14.0351 10.2893 14.6901L11.9278 16.3066L13.4287 14.8271C13.7652 14.4835 14.166 14.2125 14.6074 14.03C15.0488 13.8476 15.5216 13.7575 15.9978 13.765C16.9652 13.7713 17.8923 14.1605 18.5834 14.8504L20.0515 16.3133L21.726 14.6734C22.3848 14.0249 23.2565 13.6488 24.1719 13.6179C25.0873 13.587 25.9814 13.9037 26.6808 14.5064L28.5356 16.1029C28.8649 14.4743 28.5685 12.7791 27.7076 11.3667C26.8467 9.95432 25.4869 8.93237 23.9085 8.51155Z" fill="#FF7010"/>
<path d="M22.6338 15.6216C22.6338 15.6216 20.8708 17.405 20.6676 17.4852L19.5239 31.9898H23.535C24.1062 31.9904 24.6594 31.7864 25.0979 31.4134C25.5364 31.0403 25.8323 30.5221 25.9337 29.9492L27.0315 23.7573L28.1228 17.4885L25.8289 15.5147C25.3774 15.1271 24.8012 14.9235 24.2112 14.9432C23.6212 14.9629 23.0593 15.2046 22.6338 15.6216Z" fill="#FF7010"/>
</svg>
