<svg width="32" height="32" viewBox="0 0 32 32" fill="none" xmlns="http://www.w3.org/2000/svg">
<g clip-path="url(#clip0_28120_296)">
<mask id="mask0_28120_296" style="mask-type:alpha" maskUnits="userSpaceOnUse" x="0" y="0" width="17" height="32">
<rect width="16.4" height="32" fill="#C4C4C4"/>
</mask>
<g mask="url(#mask0_28120_296)">
<path d="M13.3399 28.8447C13.0891 28.8447 12.8367 28.812 12.5883 28.7454C11.7508 28.5209 11.0641 27.9391 10.7043 27.1491C10.4047 26.4907 9.71838 26.0962 9.00159 26.165C8.13596 26.2467 7.29143 25.9439 6.67854 25.3302C6.06526 24.7163 5.76174 23.8689 5.84495 23.005C5.85906 22.8581 5.84919 22.7138 5.82639 22.5728L2.46057 24.5179C5.19607 28.8587 9.95335 31.7977 15.4 32V28.1057C15.2666 28.1564 15.1368 28.22 15.0168 28.3057C14.5203 28.6603 13.9348 28.8447 13.3399 28.8447Z" fill="#FF7010"/>
<path d="M12.8988 4.41489C12.4085 4.54646 12.007 4.88682 11.7964 5.34917C11.2847 6.47387 10.1085 7.1503 8.88667 7.03085C8.38081 6.98217 7.88589 7.15988 7.52729 7.5192C7.16831 7.87833 6.99058 8.37431 7.0394 8.87987C7.07832 9.28433 7.02397 9.67963 6.90356 10.0499L15.4 14.96V5.13955C15.0194 5.05878 14.6502 4.90827 14.3199 4.67236C13.907 4.37715 13.3886 4.2839 12.8988 4.41489ZM13.0669 10.9151C12.1613 11.4385 11.0032 11.1279 10.4803 10.2214C9.95747 9.31486 10.2677 8.1557 11.1734 7.63232C12.0791 7.10895 13.2371 7.41955 13.76 8.32605C14.2829 9.23257 13.9726 10.3917 13.0669 10.9151Z" fill="#FF7010"/>
<path d="M4.86172 21.3005C4.07266 20.941 3.49141 20.2539 3.2668 19.4156C3.04219 18.5771 3.20234 17.6909 3.70625 16.9843C4.12578 16.3957 4.12578 15.6047 3.70625 15.0163C3.20234 14.3095 3.04219 13.4233 3.2668 12.5848C3.49141 11.7465 4.07266 11.0594 4.86172 10.6997C4.9959 10.6385 5.11582 10.5578 5.22637 10.4676L1.85801 8.521C0.673877 10.7551 0 13.2999 0 16.0002C0 18.7005 0.673877 21.2453 1.85801 23.4794L5.22647 21.5328C5.11587 21.4425 4.9959 21.3618 4.86172 21.3005Z" fill="#FF7010"/>
<path d="M4.42584 19.1043C4.55709 19.5948 4.89732 19.9969 5.35943 20.2073C5.72872 20.3758 6.04351 20.6205 6.30372 20.91L14.8002 16L6.30367 11.0898C6.04351 11.3793 5.72867 11.624 5.35943 11.7924C4.89732 12.003 4.55709 12.4051 4.42584 12.8956C4.29459 13.3861 4.38834 13.9048 4.68287 14.3183C5.40044 15.3241 5.40044 16.6758 4.68287 17.6818C4.38834 18.0951 4.29459 18.6138 4.42584 19.1043ZM8.24048 14.1046C9.28624 14.1046 10.134 14.9532 10.134 16C10.134 17.0467 9.28624 17.8953 8.24048 17.8953C7.19468 17.8953 6.34693 17.0467 6.34693 16C6.34693 14.9532 7.19468 14.1046 8.24048 14.1046Z" fill="#FF7010"/>
<path d="M2.46057 7.48218L5.82639 9.42727C5.84924 9.28622 5.85906 9.14184 5.84495 8.9949C5.76174 8.13119 6.06526 7.28371 6.67854 6.66984C7.29182 6.05598 8.13713 5.75237 9.00198 5.83506C9.71721 5.90564 10.4051 5.50897 10.7043 4.85132C11.0641 4.06111 11.7508 3.47931 12.5883 3.25468C13.4262 3.03005 14.311 3.19017 15.0168 3.69436C15.1368 3.78003 15.2666 3.84364 15.4 3.89438V0C9.95335 0.202316 5.19607 3.14139 2.46057 7.48218Z" fill="#FF7010"/>
<path d="M7.0394 23.12C6.99058 23.6257 7.16831 24.1217 7.52729 24.4808C7.88589 24.84 8.38511 25.0163 8.88628 24.9692C10.1191 24.8495 11.2851 25.5267 11.7964 26.6509C12.007 27.113 12.4085 27.4536 12.8988 27.5851C13.3882 27.7165 13.907 27.6229 14.3199 27.3277C14.6502 27.0918 15.0194 26.9412 15.4 26.8604V17.04L6.90356 21.9501C7.02397 22.3203 7.07832 22.7156 7.0394 23.12ZM10.4803 21.7786C11.0032 20.8721 12.1613 20.5615 13.0669 21.0849C13.9726 21.6083 14.2829 22.7675 13.76 23.674C13.2371 24.5805 12.0791 24.8911 11.1734 24.3677C10.2677 23.8443 9.95747 22.6852 10.4803 21.7786Z" fill="#FF7010"/>
</g>
<path d="M29.9174 26.2613C29.2074 24.896 29.13 23.292 29.7074 21.8607C30.3347 20.3027 30.6667 18.506 30.6667 16.6667C30.6667 13.522 29.7894 11.5913 28.94 9.724C28.1807 8.05333 27.468 6.45667 27.356 3.99533C27.7134 3.98267 28 3.69333 28 3.33333C28 2.96533 27.702 2.66667 27.3334 2.66667V0.666667C27.3334 0.298667 27.0354 0 26.6667 0H21.3334C20.9647 0 20.6667 0.298667 20.6667 0.666667V2.66667C20.298 2.66667 20 2.96533 20 3.33333C20 3.69333 20.2867 3.98267 20.644 3.99533C20.532 6.45667 19.8194 8.054 19.06 9.724C18.2114 11.5913 17.3334 13.522 17.3334 16.6667C17.3334 18.506 17.6654 20.3027 18.2927 21.8613C18.8694 23.2933 18.7927 24.8973 18.0827 26.262C17.5927 27.2033 17.3334 28.2653 17.3334 29.3333C17.3334 30.0827 17.4634 30.83 17.72 31.5553C17.814 31.822 18.066 32 18.348 32H29.6507C29.9334 32 30.1847 31.822 30.2787 31.556C30.5367 30.8313 30.6667 30.0833 30.6667 29.3333C30.6667 28.2653 30.408 27.2033 29.9174 26.2613C29.9174 26.262 29.9174 26.262 29.9174 26.2613ZM26.014 4C26.0334 4.47467 26.08 4.91133 26.1374 5.33333H21.8634C21.9207 4.91133 21.9674 4.47467 21.9867 4H26.014ZM28.4654 12C28.6294 12.424 28.7774 12.8653 28.9047 13.3333H19.0954C19.2227 12.8653 19.3707 12.424 19.5347 12H28.4654ZM28.9074 20C28.7874 20.46 28.65 20.9087 28.4807 21.3333H19.52C19.3507 20.9087 19.2134 20.46 19.0934 20H28.9074Z" fill="#FF7010"/>
</g>
<defs>
<clipPath id="clip0_28120_296">
<rect width="32" height="32" fill="white"/>
</clipPath>
</defs>
</svg>
