<svg width="32" height="32" viewBox="0 0 32 32" fill="none" xmlns="http://www.w3.org/2000/svg">
<path d="M17.1053 6.51327V3.68142L23.0987 2.25693C23.649 2.12614 23.9814 1.56538 23.832 1.01987L23.8069 0.928159C23.6649 0.40989 23.1388 0.096457 22.6154 0.218419L15.6678 1.83755C15.2151 1.94305 14.8948 2.3466 14.8948 2.81145V6.51327H7.66669C7.1144 6.51327 6.66669 6.96099 6.66669 7.51327V11.115H25.3334V7.51327C25.3334 6.96099 24.8856 6.51327 24.3334 6.51327H17.1053Z" fill="#FF7010"/>
<path d="M6.75269 12.8848L9.29479 30.1591C9.44216 31.2211 10.4001 31.9998 11.4685 31.9998H20.4211C21.5264 31.9998 22.4474 31.2211 22.5948 30.1591L25.1369 12.8848H6.75269Z" fill="#FF7010"/>
</svg>
