<svg width="32" height="32" viewBox="0 0 32 32" fill="none" xmlns="http://www.w3.org/2000/svg">
<g clip-path="url(#clip0_28120_339)">
<path d="M31.9807 10.4214C31.9487 7.97792 29.9575 6 27.5144 6C25.3318 6 23.511 7.57913 23.1245 9.65834C22.3572 9.99896 21.0244 10.5437 20.2302 10.6763C19.2727 10.836 18.1155 10.884 16.7908 10.8187C14.2605 10.694 11.7344 9.86735 9.48535 8.42748C6.65527 6.61593 4.24487 6.192 1.66968 7.05292C0.670898 7.38688 0 8.32963 0 9.3993C0 9.74584 0.187744 10.0648 0.489502 10.2306C0.834472 10.4199 1.15698 10.5836 1.46899 10.7416C3.15918 11.5981 4.09033 12.0698 4.70727 14.6696C5.16821 16.6108 5.97461 18.2379 7.10449 19.5055C7.58398 20.0436 8.12304 20.5183 8.71655 20.9269H21.5471C23.4853 19.4666 24.6719 17.2513 24.998 14.4583C25.1938 12.7816 25.0293 11.3198 24.9145 10.5994C24.9194 10.5607 24.9226 10.5215 24.9226 10.4813C24.9226 9.054 26.0852 7.89288 27.5144 7.89288C28.9433 7.89288 30.1062 9.054 30.1062 10.4813C30.1062 10.5264 30.1094 10.5715 30.1157 10.6161C30.1169 10.6255 30.2204 11.564 29.6423 12.2376C29.1684 12.7897 28.3313 13.0697 27.1543 13.0697C26.6365 13.0697 26.2168 13.4934 26.2168 14.0162C26.2168 14.5387 26.6365 14.9626 27.1543 14.9626C28.8996 14.9626 30.2136 14.4628 31.0593 13.4769C32.0967 12.2682 32.0205 10.7988 31.9807 10.4214Z" fill="#FF7010"/>
<path d="M8.72168 22.8193C8.66943 23.0232 8.64185 23.2369 8.64185 23.4567V25.0533C8.64185 25.5758 9.06152 25.9998 9.5791 25.9998H20.7441C21.2617 25.9998 21.6816 25.5758 21.6816 25.0533V23.4567C21.6816 23.2369 21.6538 23.0232 21.6016 22.8193H8.72168Z" fill="#FF7010"/>
</g>
<defs>
<clipPath id="clip0_28120_339">
<rect width="32" height="32" fill="white"/>
</clipPath>
</defs>
</svg>
