<svg width="32" height="32" viewBox="0 0 32 32" fill="none" xmlns="http://www.w3.org/2000/svg">
<path d="M9.06502 0C8.76956 0 8.54902 0.238377 8.53169 0.533342V8.62814C9.06793 8.82165 9.4838 9.29421 9.57753 9.87918C9.58125 9.89954 9.79409 11.0933 10.665 12.35V0.533342C10.665 0.237873 10.4272 0 10.1317 0H9.06502ZM21.865 0C21.5696 0 21.349 0.238377 21.3317 0.533342V12.3448C22.208 11.078 22.4223 9.86873 22.4223 9.86873C22.5193 9.28922 22.9326 8.82078 23.465 8.62814V0.533342C23.465 0.237873 23.2272 0 22.9317 0H21.865ZM12.265 2.13337C11.9696 2.13337 11.7317 2.3712 11.7317 2.66665V13.5511C12.2778 14.0255 12.9585 14.4281 13.865 14.6729V2.66665C13.865 2.3712 13.6272 2.13337 13.3317 2.13337H12.265ZM18.665 2.13337C18.3696 2.13337 18.1317 2.3712 18.1317 2.66665V14.6729C19.0385 14.4277 19.7191 14.024 20.265 13.549V2.66665C20.265 2.3712 20.0272 2.13337 19.7317 2.13337H18.665ZM5.86502 4.26667C5.56956 4.26667 5.33169 4.50454 5.33169 4.80001V8.5323H7.46502V4.80001C7.46502 4.50454 7.22716 4.26667 6.93169 4.26667H5.86502ZM15.465 4.26667C15.1696 4.26667 14.9317 4.50454 14.9317 4.80001V14.875C15.2626 14.9125 15.6169 14.9333 15.9973 14.9333C16.3789 14.9333 16.7332 14.9127 17.065 14.875V4.80001C17.065 4.50454 16.8272 4.26667 16.5317 4.26667H15.465ZM25.065 4.26667C24.7696 4.26667 24.5317 4.50454 24.5317 4.80001V8.5323H26.665V4.80001C26.665 4.50454 26.4272 4.26667 26.1317 4.26667H25.065ZM3.19836 9.59898C2.87725 9.60011 2.62991 9.88259 2.67127 10.201L5.3369 30.4646C5.43124 31.2584 6.05098 32 6.93065 32H25.065C25.9425 32 26.5618 31.2601 26.6588 30.4688L29.3286 10.201C29.3701 9.88093 29.1201 9.59759 28.7973 9.59898H23.9984C23.7374 9.60031 23.5157 9.79025 23.4744 10.0479C23.4744 10.0479 23.2222 11.5286 22.1629 13.0239C21.1037 14.5193 19.3009 16 15.9984 16C12.6958 16 10.8919 14.5193 9.83273 13.0239C8.77354 11.5286 8.52544 10.0479 8.52544 10.0479C8.48395 9.78906 8.26051 9.59878 7.99836 9.59898H3.19836ZM15.9984 19.7344C18.3485 19.7344 20.265 21.6478 20.265 23.9979C20.265 26.348 18.3485 28.2656 15.9984 28.2656C13.6482 28.2656 11.7296 26.348 11.7296 23.9979C11.7296 21.6478 13.6482 19.7344 15.9984 19.7344Z" fill="#FF7010"/>
</svg>
