<svg width="32" height="32" viewBox="0 0 32 32" fill="none" xmlns="http://www.w3.org/2000/svg">
<g clip-path="url(#clip0_28120_279)">
<path d="M19.4592 19.3818C15.2035 19.3818 11.1928 20.0078 7.86072 21.1921C7.0382 21.4844 6.18197 21.6328 5.31602 21.6327C4.24815 21.6327 3.21339 21.4049 2.26892 20.9854C3.04472 23.87 5.68714 26 8.81917 26H24.3109C27.475 26 30.1398 23.8261 30.8847 20.8964C30.5829 20.8954 30.2828 20.8536 29.9925 20.7714C26.7797 19.8624 23.1373 19.3818 19.4592 19.3818Z" fill="#FF7010"/>
<path d="M10.0413 18.2524C11.3704 17.929 12.76 17.6777 14.1871 17.5004C11.4049 14.4597 11.1457 9.3412 13.6837 6C11.6402 6.06286 9.64511 6.39693 7.78753 6.97437C6.83578 7.88611 6.16037 9.06045 5.85967 10.3514C5.04679 13.5583 6.94337 17.1184 10.0413 18.2524Z" fill="#FF7010"/>
<path d="M7.10386 19.1221C4.32169 17.0409 2.8729 13.4435 3.70934 9.85267C3.81487 9.39963 3.95712 8.95812 4.12984 8.53027C3.3926 8.94175 2.69658 9.39948 2.05082 9.90158C-1.9576 12.9999 0.324821 19.4418 5.31605 19.4297C5.91007 19.4297 6.51367 19.3298 7.10386 19.1221Z" fill="#FF7010"/>
<path d="M25.9456 9.22607C24.9726 9.70452 24.188 10.4897 23.7114 11.4733C22.91 13.127 23.1105 15.0496 24.1766 16.487C24.3414 16.7092 24.9471 17.3774 25.0034 17.529C26.9269 17.774 28.8099 18.147 30.595 18.6521C30.9659 18.7571 31.3652 18.6612 31.6477 18.3991C31.9303 18.137 32.0551 17.7466 31.9772 17.3696C31.3028 14.1095 29.0905 11.259 25.9456 9.22607Z" fill="#FF7010"/>
<path d="M17.1896 17.2381C18.793 17.1552 20.4196 17.1612 22.038 17.2552C20.8139 15.2415 20.6577 12.7143 21.7239 10.5142C22.2036 9.52423 22.8985 8.67316 23.7499 8.01215C21.6113 7.00796 19.1783 6.33791 16.5857 6.09277C13.077 8.98109 13.4069 14.7692 17.1896 17.2381Z" fill="#FF7010"/>
</g>
<defs>
<clipPath id="clip0_28120_279">
<rect width="32" height="32" fill="white"/>
</clipPath>
</defs>
</svg>
